<svg xmlns="http://www.w3.org/2000/svg" width="512" height="512"><path d="M512 319.3c0-16.7-11.3-30.5-26.6-34.8 9.5-6.5 15.8-17.5 15.8-30 0-20-16.3-36.2-36.3-36.2h-68c-15-.6-31-3-39-11.8-22-23.2 14-56.8 21-75.4 6.4-18 22-54 8-93-14.7-42-59-35-66 7-4 24-32 89-74 127-37.8 33-71 55.8-85.7 73.7C148.3 262 133 266 133 266v180h21c29.5 0 117.8 30 161 31.5 59.5 2.3 69 .5 93.4-2.2l22.8-3.3c17.4-3 30.7-18 30.7-36 0-7-2-13-5-18 18-2 33-17 33-36 0-11-5-21-13-27.7 19-1 34.2-16.8 34.2-36zM0 302.5V466c0 20.2 16.4 36.6 36.6 36.6h43.6c13.5 0 24.4-11 24.4-24.4V266h-68C16.4 266 0 282.2 0 302.4zM51.5 430c9.2 0 16.7 7.5 16.7 16.8s-7.5 16.8-16.7 16.8c-9.3 0-16.8-7.5-16.8-16.8S42.2 430 51.5 430z"/></svg>